<svg version="1" xmlns="http://www.w3.org/2000/svg" width="346.667" height="346.667" viewBox="0 0 260.000000 260.000000"><path d="M121.8 1.6C119 2.5 53.2 39.9 35 50.9c-1.9 1.1-4.2 2.4-5 2.8-3.3 1.5-7.9 5.6-10.5 9.2-5.6 8.1-5.6 9.1-5.7 65.6 0 28.6.3 54 .7 56.4.9 5.9 3.7 11.4 8.4 15.9 3.4 3.4 90.4 54.4 97.6 57.3 4.4 1.7 13.4 1.8 18 .2 7.7-2.7 94.8-53.6 99.2-58 3.8-3.8 6.6-8.5 8-13.8.3-1.1.6-26.1.7-55.5.2-57.4.1-59-4.9-67-1.3-2-4.1-5-6.2-6.7-4.3-3.4-89.7-52.7-95.2-55-4.7-2-13.7-2.3-18.3-.7zm19 58.4c5.7 3.3 10.6 6 11 6 .3 0 1.3.6 2.1 1.4.9.7 4.1 2.7 7.1 4.3 17.9 9.7 36.3 21 36.9 22.4.3 1 .6 9.4.5 18.8-.1 17.5-.6 20.1-4.3 20.1-.9 0-9.1-4.5-18.3-9.9-9.2-5.5-17.6-10.2-18.6-10.5-1-.3-2.6 0-3.6.7-1.7 1.2-1.8 4.2-1.7 44.2 0 23.7-.2 44.2-.5 45.6-.4 2-2.4 3.6-8.6 7.2-10.7 6-15.1 6-25.6-.2-3.9-2.3-7.5-4.7-7.9-5.4-.4-.6-.9-20.8-1-44.7-.1-23.9-.2-44.1-.2-44.8-.1-.7-1.1-1.7-2.4-2.3-2-.9-4.2.1-16.2 7.2-7.7 4.5-15.8 9.3-18 10.5-8.8 5.2-9.6 3.8-9.6-17.9.1-9.6.3-18.1.6-18.9.3-.8 4-3.4 8.3-5.9 4.2-2.4 8.5-4.8 9.4-5.4.9-.5 3.4-2 5.5-3.1 2.1-1.2 12.8-7.4 23.8-13.8 11-6.3 20.2-11.6 20.5-11.6.3 0 5.2 2.7 10.8 6z"/></svg>